<?xml version="1.0" ?><svg style="enable-background:new 0 0 416.1 323.2;" version="1.1" viewBox="0 0 416.1 323.2" xml:space="preserve" xmlns="http://www.w3.org/2000/svg" xmlns:xlink="http://www.w3.org/1999/xlink"><style type="text/css">
	.st0{fill:#0561FC;}
	.st1{fill:#003E99;}
	.st2{fill:#0450CF;}
	.st3{fill:#72445C;}
	.st4{fill:#EAF4FE;}
	.st5{fill:#C5E1F9;}
	.st6{fill:#140906;}
	.st7{fill:#584E4D;}
	.st8{fill:#3F3534;}
	.st9{fill:#5E5452;}
	.st10{fill:#7C633D;}
	.st11{fill:#7EB3FF;}
	.st12{fill:#9AC7F7;}
	.st13{fill:#74B8DC;}
	.st14{fill:#89A000;}
	.st15{fill:#9FC400;}
	.st16{fill:#FFAB01;}
	.st17{fill:#FEC12F;}
	.st18{fill:#FFFFFF;}
	.st19{fill:#424953;}
	.st20{fill:#FF876C;}
	.st21{fill:#01BACC;}
	.st22{fill:none;}
	.st23{opacity:0.2;fill:#FFFFFF;}
	.st24{fill:#E8ECEF;}
	.st25{fill:#F4DA80;}
	.st26{fill:#FFD970;}
	.st27{fill:#F0BF41;}
	.st28{fill:#2B232E;}
	.st29{fill:#D1ECFB;}
	.st30{clip-path:url(#SVGID_2_);fill:#7EB3FF;}
	.st31{clip-path:url(#SVGID_2_);fill:#10303F;}
	.st32{fill:#F0CA67;}
	.st33{fill:#212A54;}
	.st34{fill:#F7B68B;}
	.st35{fill:#EC9568;}
	.st36{fill:#B3DB53;}
	.st37{fill:#98D14A;}
	.st38{fill:none;stroke:#212A54;stroke-width:1.1258;stroke-miterlimit:10;}
	.st39{fill:none;stroke:#F4DA80;stroke-width:6.2144;stroke-miterlimit:10;}
	.st40{fill:none;stroke:#FD8838;stroke-width:2.2517;stroke-miterlimit:10;stroke-dasharray:9.0067;}
	.st41{fill:#FCCC42;}
	.st42{fill:none;stroke:#FD8838;stroke-width:2.2517;stroke-miterlimit:10;}
	.st43{fill:#212957;}
	.st44{fill:none;stroke:#0450CF;stroke-width:2.1414;stroke-miterlimit:10;}
	.st45{fill:none;stroke:#0450CF;stroke-width:4.2735;stroke-miterlimit:10;}
	.st46{fill:none;stroke:#61AFF6;stroke-width:3.8526;stroke-miterlimit:10;}
	.st47{fill:none;stroke:#0561FC;stroke-width:3.8526;stroke-miterlimit:10;}
</style><g id="Layer_2"/><g id="Layer_4"><path class="st4" d="M340.4,113c0,61.9-50.2,112.1-112.1,112.1c-61.9,0-112.1-50.2-112.1-112.1c0-61.9,50.2-112.1,112.1-112.1   C290.2,0.9,340.4,51.1,340.4,113z"/><g><g><rect class="st0" height="44.2" width="2" x="211.7" y="33.8"/><polygon class="st14" points="239.9,65.3 239.9,52.3 239.9,39.2 271,39.2 265.2,52.3 271,65.3    "/><polygon class="st15" points="210.5,62.4 210.5,49.3 210.5,36.3 243.7,36.3 243.7,49.3 243.7,62.4    "/></g><polygon class="st1" points="212.3,75.4 163.4,165.1 114.5,254.8 212.3,254.8 310,254.8 261.2,165.1   "/><polygon class="st0" points="279.6,134.6 248.2,194.7 216.8,254.8 279.6,254.8 342.3,254.8 310.9,194.7   "/><polygon class="st0" points="203.9,177.2 178.9,216 153.9,254.8 203.9,254.8 253.9,254.8 228.9,216   "/><path class="st5" d="M311.7,148.1c0-0.4,0.1-0.7,0.1-1.1c0-4.2-3.4-7.5-7.5-7.5c-0.5,0-1,0.1-1.5,0.2c-1.4-3-3.7-5.5-6.5-7.1    c-2.6-5.4-8.1-9.2-14.5-9.2c-5.7,0-10.7,3-13.5,7.4c-2.2-2.2-5.2-3.6-8.5-3.6c-4.3,0-8.1,2.3-10.2,5.8c-3-3.6-7.4-5.8-12.4-5.8    c-6,0-11.2,3.3-14,8.2c-7.1,0.7-12.8,6-14.2,12.8H311.7z"/><path class="st4" d="M168.7,102c0-0.1,0-0.3,0-0.4c0-1.7-1.3-3-3-3c-0.2,0-0.4,0-0.6,0.1c-0.6-1.2-1.5-2.2-2.6-2.8    c-1-2.2-3.2-3.6-5.8-3.6c-2.3,0-4.2,1.2-5.4,2.9c-0.9-0.9-2-1.4-3.4-1.4c-1.7,0-3.2,0.9-4,2.3c-1.2-1.4-2.9-2.3-4.9-2.3    c-2.4,0-4.5,1.3-5.6,3.2c-2.8,0.3-5.1,2.4-5.6,5.1H168.7z"/><g><path class="st12" d="M8.7,227.6l-1.5-1.3l3.5-4l1.5,1.3L8.7,227.6z M15.7,219.5l-1.5-1.3l3.5-4l1.5,1.3L15.7,219.5z M22.7,211.4     l-1.5-1.3l3.5-4l1.5,1.3L22.7,211.4z M29.6,203.4l-1.5-1.3l3.5-4l1.5,1.3L29.6,203.4z M36.6,195.3l-1.5-1.3l3.5-4l1.5,1.3     L36.6,195.3z M43.6,187.2l-1.5-1.3l3.5-4l1.5,1.3L43.6,187.2z M50.6,179.1l-1.5-1.3l3.5-4l1.5,1.3L50.6,179.1z M57.5,171     l-1.5-1.3l3.5-4L61,167L57.5,171z M64.5,162.9l-1.5-1.3l3.5-4l1.5,1.3L64.5,162.9z M135,160l-1.4-1.4l3.8-3.7l1.4,1.4L135,160z      M129.6,158.6l-4.3-3.2l1.2-1.6l4.3,3.2L129.6,158.6z M71.5,154.9l-1.5-1.3l3.5-4l1.5,1.3L71.5,154.9z M142.7,152.6l-1.4-1.4     l3.8-3.7l1.4,1.4L142.7,152.6z M121,152.2l-4.3-3.2l1.2-1.6l4.3,3.2L121,152.2z M78.5,146.8l-1.5-1.3l3.5-4l1.5,1.3L78.5,146.8z      M112.4,145.9l-4.3-3.2l1.2-1.6l4.3,3.2L112.4,145.9z M150.3,145.1l-1.4-1.4l3.8-3.7l1.4,1.4L150.3,145.1z M103.9,139.5l-4.3-3.2     l1.2-1.6l4.3,3.2L103.9,139.5z M85.5,138.7l-1.5-1.3l3.5-4l1.5,1.3L85.5,138.7z M157.9,137.6l-1.4-1.4l3.8-3.7l1.4,1.4     L157.9,137.6z M95.3,133.2l-3.8-2.8l0.3-0.3l-0.8-0.7l1-1.1l4.6,3.4L95.3,133.2z M165.6,130.1l-1.4-1.4l3.8-3.7l1.4,1.4     L165.6,130.1z M259.2,126l-2.2-2l1.4-1.5l0.6,0.5l1.5-1.9l1.5,1.3L259.2,126z M173.2,122.6l-1.4-1.4l3.8-3.7l1.4,1.4L173.2,122.6     z M253.1,120.5l-3.9-3.6l1.3-1.5l3.9,3.6L253.1,120.5z M265.5,118.4l-1.5-1.3l3.4-4.1l1.5,1.3L265.5,118.4z M180.8,115.2     l-1.4-1.4l3.8-3.7l1.4,1.4L180.8,115.2z M245.3,113.2l-3.9-3.6l1.3-1.5l3.9,3.6L245.3,113.2z M272.2,110.1l-1.5-1.3l3.4-4.1     l1.5,1.3L272.2,110.1z M188.4,107.7l-1.4-1.4l3.8-3.7l1.4,1.4L188.4,107.7z M237.4,106l-3.9-3.6l1.4-1.5l3.9,3.6L237.4,106z      M279,101.9l-1.5-1.3l3.4-4.1l1.5,1.3L279,101.9z M364.5,100.2l-3-2.4l1.2-1.6l1.3,1l0.8-1.2l1.7,1.1L364.5,100.2z M196.1,100.2     l-1.4-1.4l3.8-3.7l1.4,1.4L196.1,100.2z M229.5,98.8l-3.9-3.6l1.4-1.5l3.9,3.6L229.5,98.8z M357.3,94.5l-4.2-3.3l1.2-1.6l4.2,3.3     L357.3,94.5z M285.8,93.6l-1.5-1.3l3.4-4.1l1.5,1.3L285.8,93.6z M203.7,92.7l-1.4-1.4l3.8-3.7l1.4,1.4L203.7,92.7z M369.4,92.7     l-1.7-1.1l2.9-4.5l1.7,1.1L369.4,92.7z M221.7,91.6l-3.9-3.6l1.4-1.5l3.9,3.6L221.7,91.6z M348.9,87.9l-4.2-3.3l1.2-1.6l4.2,3.3     L348.9,87.9z M292.5,85.3l-1.5-1.3l3.4-4.1l1.6,1.3L292.5,85.3z M211.3,85.3l-1.4-1.4l3-3l2.2,2l-1.4,1.5l-0.8-0.7L211.3,85.3z      M375.2,83.7l-1.7-1.1l2.9-4.5l1.7,1.1L375.2,83.7z M340.5,81.3l-4.2-3.3l1.2-1.6l4.2,3.3L340.5,81.3z M299.3,77.1l-1.5-1.3     l3.4-4.1l1.5,1.3L299.3,77.1z M381,74.7l-1.7-1.1l2.9-4.5l1.7,1.1L381,74.7z M332.1,74.7l-4.2-3.3l1.2-1.6l4.2,3.3L332.1,74.7z      M306.1,68.8l-1.5-1.3l3.4-4.1l1.5,1.3L306.1,68.8z M323.7,68.1l-4.2-3.3l1.2-1.6l4.2,3.3L323.7,68.1z M386.8,65.7l-1.7-1.1     l2.9-4.5l1.7,1.1L386.8,65.7z M315.4,61.5l-2-1.6l-0.5,0.6l-1.5-1.3l1.8-2.2l3.6,2.8L315.4,61.5z M392.6,56.8l-1.7-1.1l2.9-4.5     l1.7,1.1L392.6,56.8z M398.4,47.8l-1.7-1.1l2.9-4.5l1.7,1.1L398.4,47.8z M404.2,38.8l-1.7-1.1l2.9-4.5l1.7,1.1L404.2,38.8z      M409.9,29.9l-1.7-1.1l0.5-0.8l1.7,1.1L409.9,29.9z"/></g><path class="st12" d="M15.9,227c0,4.4-3.5,7.9-7.9,7.9c-4.4,0-7.9-3.6-7.9-7.9c0-4.4,3.6-7.9,7.9-7.9    C12.3,219,15.9,222.6,15.9,227z"/><path class="st12" d="M98.5,129.5c0,3.6-2.9,6.5-6.5,6.5c-3.6,0-6.5-2.9-6.5-6.5c0-3.6,2.9-6.5,6.5-6.5    C95.6,123,98.5,125.9,98.5,129.5z"/><path class="st11" d="M224.1,82.2c0,6.2-5,11.2-11.2,11.2c-6.2,0-11.2-5-11.2-11.2c0-6.2,5-11.2,11.2-11.2    C219.2,71.1,224.1,76.1,224.1,82.2z"/><g><path class="st12" d="M213,94.4c-6.7,0-12.2-5.5-12.2-12.2c0-6.7,5.5-12.2,12.2-12.2c6.7,0,12.2,5.5,12.2,12.2     C225.1,89,219.7,94.4,213,94.4z M213,72.1c-5.6,0-10.2,4.6-10.2,10.2c0,5.6,4.6,10.2,10.2,10.2c5.6,0,10.2-4.6,10.2-10.2     C223.1,76.6,218.6,72.1,213,72.1z"/></g><path class="st5" d="M219.5,82.2c0,3.6-2.9,6.5-6.5,6.5c-3.6,0-6.5-2.9-6.5-6.5c0-3.6,2.9-6.5,6.5-6.5    C216.6,75.8,219.5,78.7,219.5,82.2z"/><path class="st12" d="M267.8,123.3c0,4.8-3.9,8.7-8.7,8.7c-4.8,0-8.7-3.9-8.7-8.7c0-4.8,3.9-8.7,8.7-8.7    C263.9,114.5,267.8,118.4,267.8,123.3z"/><path class="st0" d="M265.2,123.3c0,3.3-2.7,6-6.1,6c-3.3,0-6-2.7-6-6c0-3.3,2.7-6,6-6C262.5,117.2,265.2,119.9,265.2,123.3z"/><path class="st15" d="M375.1,98.8c0,6-4.9,10.9-10.9,10.9c-6,0-10.9-4.9-10.9-10.9c0-6,4.9-10.9,10.9-10.9    C370.3,87.9,375.1,92.8,375.1,98.8z"/><g><path class="st12" d="M364.3,110.6c-6.5,0-11.9-5.3-11.9-11.9c0-6.5,5.3-11.9,11.9-11.9c6.6,0,11.9,5.3,11.9,11.9     C376.1,105.3,370.8,110.6,364.3,110.6z"/></g><path class="st12" d="M416.1,28.5c0,3.6-2.9,6.5-6.5,6.5c-3.6,0-6.5-2.9-6.5-6.5c0-3.6,2.9-6.5,6.5-6.5    C413.2,22,416.1,24.9,416.1,28.5z"/><path class="st18" d="M370.8,98.8c0,3.6-2.9,6.5-6.5,6.5c-3.6,0-6.5-2.9-6.5-6.5c0-3.6,2.9-6.5,6.5-6.5    C367.9,92.3,370.8,95.2,370.8,98.8z"/><g><g><g><path class="st17" d="M116,229.7l-4.2-0.5C82.9,226.1,61,200,61,168.4c0-1.2,0-2.4,0.1-3.5l0.2-3.6H116V229.7L116,229.7z        M68.6,168.9c0.2,25.9,17,47.5,39.8,52.2v-52.2H68.6L68.6,168.9z"/></g><g><path class="st17" d="M130.9,229.7v-68.4h54.7l0.2,3.6c0.1,1.2,0.1,2.3,0.1,3.5c0,31.6-21.8,57.7-50.8,60.8L130.9,229.7       L130.9,229.7z M138.5,168.9V221c22.8-4.6,39.6-26.2,39.8-52.2H138.5L138.5,168.9z"/></g></g><rect class="st17" height="12" width="35.4" x="105.8" y="265.7"/><path class="st17" d="M86.7,157.5c-2,6.5-3.1,13.4-3.1,20.6c0,28.1,16.3,52.2,39.8,63.1c23.5-10.9,39.8-35,39.8-63.1     c0-7.2-1.1-14.1-3.1-20.6H86.7z"/><path class="st26" d="M95.4,158.9h11.4c-2.5,8-3.8,16.5-3.8,25.2c0,17.9,5.5,34.4,14.9,48.1c-15.5-12.5-25.5-31.6-25.5-53.1     C92.3,172.1,93.4,165.3,95.4,158.9z"/><rect class="st17" height="47.4" width="11.4" x="117.8" y="226.7"/><rect class="st26" height="24.2" width="3.5" x="119.9" y="241.3"/><path class="st17" d="M154.3,278v-3.8c0-2.5-1.7-4.6-3.8-4.6H96.4c-2.1,0-3.8,2.1-3.8,4.6v3.8H154.3z"/><path class="st26" d="M107.7,279v-3.8c0-2,1.1-3.7,2.6-4.3H98.6c-2.1,0-3.8,2.1-3.8,4.6v3.8L107.7,279z"/><rect class="st0" height="38.1" width="77.4" x="84.8" y="277.6"/><rect class="st2" height="20" width="59.2" x="93.8" y="286.6"/><rect class="st2" height="9.2" width="83.5" x="81.7" y="314"/></g><g><path class="st25" d="M339.5,57.1c0,13.8-11.1,24.9-24.9,24.9c-13.8,0-24.9-11.2-24.9-24.9c0-13.7,11.1-24.9,24.9-24.9     C328.4,32.2,339.5,43.4,339.5,57.1z"/><path class="st27" d="M338.7,57.1c0,13.3-10.8,24.1-24.1,24.1c-13.3,0-24.1-10.8-24.1-24.1S301.3,33,314.6,33     C327.9,33,338.7,43.8,338.7,57.1z"/><path class="st25" d="M333.6,57.1c0,10.5-8.5,19-19,19c-10.5,0-19-8.5-19-19c0-10.5,8.5-19,19-19     C325.1,38.1,333.6,46.6,333.6,57.1z"/><g><path class="st27" d="M313.3,68.3c-1.3-0.1-2.4-0.4-3.4-0.9c-1-0.5-1.9-1.2-2.7-1.9l0.8-1.3c0.1-0.1,0.2-0.2,0.3-0.3      c0.1-0.1,0.3-0.1,0.4-0.1c0.2,0,0.4,0.1,0.7,0.3c0.2,0.2,0.6,0.4,0.9,0.7c0.4,0.3,0.8,0.5,1.3,0.7c0.5,0.2,1.1,0.4,1.8,0.5      l0.6-8.3c-0.7-0.2-1.5-0.5-2.2-0.7c-0.7-0.3-1.3-0.6-1.9-1.1c-0.6-0.5-1-1-1.3-1.7c-0.3-0.7-0.5-1.5-0.5-2.5      c0-0.8,0.1-1.5,0.4-2.2c0.3-0.7,0.7-1.4,1.3-1.9c0.6-0.6,1.3-1,2.1-1.4c0.8-0.4,1.8-0.5,2.9-0.5l0.2-2.3c0-0.2,0.1-0.4,0.2-0.5      c0.1-0.2,0.3-0.2,0.5-0.2h1l-0.2,3.1c1.1,0.1,2,0.4,2.8,0.8c0.8,0.4,1.5,0.9,2.1,1.5l-0.7,1c-0.2,0.3-0.5,0.5-0.7,0.5      c-0.1,0-0.3-0.1-0.5-0.2c-0.2-0.1-0.5-0.3-0.8-0.5c-0.3-0.2-0.7-0.3-1-0.5c-0.4-0.2-0.9-0.3-1.4-0.4l-0.5,7.6      c0.8,0.2,1.5,0.5,2.2,0.8c0.7,0.3,1.4,0.6,2,1.1c0.6,0.4,1.1,1,1.4,1.6c0.4,0.6,0.5,1.4,0.5,2.4c0,0.9-0.2,1.8-0.5,2.7      c-0.3,0.8-0.8,1.6-1.4,2.2c-0.6,0.6-1.3,1.1-2.2,1.5c-0.9,0.4-1.9,0.6-3,0.6l-0.2,2.8c0,0.2-0.1,0.4-0.3,0.5      c-0.1,0.2-0.3,0.2-0.5,0.2h-1L313.3,68.3z M310.7,51.3c0,0.5,0.1,0.9,0.3,1.3c0.2,0.4,0.4,0.7,0.7,1c0.3,0.3,0.7,0.5,1.1,0.7      c0.4,0.2,0.9,0.4,1.4,0.6l0.5-7.1c-0.7,0.1-1.3,0.2-1.8,0.4c-0.5,0.2-0.9,0.5-1.2,0.8c-0.3,0.3-0.6,0.7-0.7,1.1      C310.8,50.5,310.7,50.9,310.7,51.3z M319.4,61.7c0-0.5-0.1-1-0.3-1.3c-0.2-0.4-0.5-0.7-0.8-1c-0.3-0.3-0.7-0.5-1.2-0.7      c-0.4-0.2-0.9-0.4-1.4-0.6l-0.5,7.8c0.7-0.1,1.3-0.2,1.8-0.5c0.5-0.2,1-0.5,1.3-0.9c0.4-0.4,0.6-0.8,0.8-1.3      C319.3,62.8,319.4,62.3,319.4,61.7z"/></g></g><path class="st11" d="M144,159.7c0,6.2-5,11.2-11.2,11.2c-6.2,0-11.2-5-11.2-11.2c0-6.2,5-11.2,11.2-11.2    C139.1,148.5,144,153.5,144,159.7z"/><g><path class="st12" d="M132.9,171.8c-6.7,0-12.2-5.5-12.2-12.2c0-6.7,5.5-12.2,12.2-12.2c6.7,0,12.2,5.5,12.2,12.2     C145,166.4,139.6,171.8,132.9,171.8z M132.9,149.5c-5.6,0-10.2,4.6-10.2,10.2c0,5.6,4.6,10.2,10.2,10.2c5.6,0,10.2-4.6,10.2-10.2     C143,154.1,138.5,149.5,132.9,149.5z"/></g><path class="st5" d="M139.4,159.7c0,3.6-2.9,6.5-6.5,6.5c-3.6,0-6.5-2.9-6.5-6.5c0-3.6,2.9-6.5,6.5-6.5    C136.5,153.2,139.4,156.1,139.4,159.7z"/></g></g></svg>