<?xml version="1.0" ?><svg id="Graphics" style="enable-background:new 0 0 512 512;" version="1.1" viewBox="0 0 512 512" xml:space="preserve" xmlns="http://www.w3.org/2000/svg" xmlns:xlink="http://www.w3.org/1999/xlink"><style type="text/css">
	.st0{fill:#E6EAFE;}
	.st1{fill:#414042;}
	.st2{fill:#231F20;}
	.st3{fill:#FFFFFF;}
	.st4{fill:#042FF8;}
	.st5{fill:#F1F2F2;}
	.st6{fill:#3659F9;}
	.st7{fill:#CDD5FE;}
	.st8{fill:#9BACFC;}
	.st9{fill:#58595B;}
	.st10{fill:#111C3A;}
</style><g id="Scene_11"><g><g><path class="st0" d="M490.9,342c0.2-9.8-0.8-19.3-2.8-27.6c-7.7-32.5-32.1-57.6-58.8-76.1c-17.9-12.4-39.7-18.1-57.5-31     c-20-14.6-34.6-34.1-56.8-46.7c-22.6-12.8-53.2-17.8-80.6-14c-13.4,1.8-29.5,5.5-40.7,13.6c-15.7,11.3-28.2,26-42,39.4     c-12.8,12.4-28.5,20.8-44.4,28.8c-28,14.1-54.4,33-71.4,59.2c-14,21.6-15.1,46.7-6.7,70.6c5.4,15.4,14.6,28.9,24.6,41.6     C58.5,406,74,432.3,82.3,432c38.1-1.5,77.7,0.2,116.1,0.4c48.8,0.2,97.6,0.4,146.5,0.6c20.7,0.1,44.3,2.9,63.8-2.6     c21-5.9,45.7-10.9,61.4-27.3C485.3,387.2,490.5,363.3,490.9,342z"/></g><g><g><path class="st1" d="M449.9,295.3H293.3c-9.4,0-17.1-7.7-17.1-17.1v-88.6c0-9.4,7.7-17.1,17.1-17.1h156.6      c9.4,0,17.1,7.7,17.1,17.1v88.6C467,287.6,459.3,295.3,449.9,295.3z"/></g><g><path class="st2" d="M465.7,311.3H365.3c-0.6,0-1-0.4-1-1c0-0.6,0.4-1,1-1h100.5c8.9,0,16.1-6.6,16.1-14.8V174.1      c0-8.1-7.2-14.8-16.1-14.8H231.6c-8.9,0-16.1,6.6-16.1,14.8c0,0.6-0.4,1-1,1c-0.6,0-1-0.4-1-1c0-9.2,8.1-16.8,18.1-16.8h234.2      c10,0,18.1,7.5,18.1,16.8v120.4C483.8,303.8,475.7,311.3,465.7,311.3z"/></g><g><rect class="st3" height="4.2" width="23" x="293.2" y="185"/></g><g><rect class="st3" height="4.2" width="23" x="307.8" y="196.1"/></g><g><rect class="st3" height="4.2" transform="matrix(-1 -1.224647e-16 1.224647e-16 -1 752.7159 396.3921)" width="38.8" x="357" y="196.1"/></g><g><rect class="st4" height="4.2" transform="matrix(-1 -1.224647e-16 1.224647e-16 -1 689.6735 396.3921)" width="14" x="337.8" y="196.1"/></g><g><rect class="st3" height="4.2" width="51.5" x="293.4" y="207.2"/></g><g><rect class="st3" height="4.2" transform="matrix(-1 -1.224647e-16 1.224647e-16 -1 759.1022 418.6121)" width="60.4" x="349.4" y="207.2"/></g><g><rect class="st4" height="4.2" width="22.2" x="414.2" y="207.2"/></g><g><rect class="st4" height="4.2" width="16.1" x="302.6" y="218.3"/></g><g><rect class="st3" height="4.2" transform="matrix(-1 -1.224647e-16 1.224647e-16 -1 682.7477 440.8321)" width="32.4" x="325.2" y="218.3"/></g><g><rect class="st4" height="4.2" width="11.7" x="360.9" y="218.3"/></g><g><rect class="st3" height="4.2" width="17.2" x="293.6" y="229.4"/></g><g><rect class="st3" height="4.2" transform="matrix(-1 -1.224647e-16 1.224647e-16 -1 658.851 463.052)" width="27.1" x="315.9" y="229.4"/></g><g><rect class="st3" height="4.2" width="49.9" x="348.2" y="229.4"/></g><g><rect class="st4" height="4.2" width="23" x="302.7" y="240.5"/></g><g><rect class="st4" height="4.2" width="8" x="331.7" y="240.5"/></g><g><rect class="st3" height="4.2" width="23" x="293.7" y="251.6"/></g><g><rect class="st3" height="4.2" width="40.1" x="321.7" y="251.6"/></g><g><rect class="st4" height="4.2" transform="matrix(-1 -1.224647e-16 1.224647e-16 -1 739.8793 507.4919)" width="8.2" x="365.8" y="251.6"/></g><g><rect class="st4" height="4.2" transform="matrix(-1 -1.224647e-16 1.224647e-16 -1 764.5386 507.4919)" width="8.2" x="378.2" y="251.6"/></g><g><rect class="st3" height="4.2" width="30.6" x="390.9" y="251.6"/></g><g><rect class="st3" height="4.2" width="23" x="308.3" y="262.7"/></g><g><rect class="st4" height="4.2" transform="matrix(-1 -1.224647e-16 1.224647e-16 -1 690.6526 529.7119)" width="18.3" x="336.2" y="262.7"/></g><g><rect class="st4" height="4.2" width="23" x="293.9" y="273.9"/></g><g><rect class="st3" height="4.2" transform="matrix(-1 -1.224647e-16 1.224647e-16 -1 687.0455 551.9319)" width="41.4" x="322.8" y="273.9"/></g><g><rect class="st3" height="4.2" width="78.7" x="369.5" y="273.9"/></g><g><rect class="st3" height="4.2" width="23" x="320.7" y="185"/></g></g><g><g><path class="st5" d="M260.4,431.9H33.9V200.5c0-9.4,7.6-16.9,17-16.9h192.6c9.4,0,16.9,7.6,16.9,16.9V431.9z"/></g><g><path class="st6" d="M245.6,183.5h-197c-8.1,0-14.7,6.6-14.7,14.7v15.4h226.5v-15.4C260.4,190.1,253.8,183.5,245.6,183.5z"/></g><g><circle class="st3" cx="57.4" cy="200.4" r="3.6"/></g><g><circle class="st3" cx="71.8" cy="200.4" r="3.6"/></g><g><circle class="st3" cx="86.2" cy="200.4" r="3.6"/></g><g><path class="st7" d="M210.5,350.4H80c-13.9,0-25.1-11.3-25.1-25.1v-66.5c0-13.9,11.3-25.1,25.1-25.1h130.5      c13.9,0,25.1,11.3,25.1,25.1v66.5C235.7,339.2,224.4,350.4,210.5,350.4z"/></g><g><path class="st8" d="M68.9,276.9c-4.8,0-9.5,0.5-14,1.5v46.9c0,13.9,11.3,25.1,25.1,25.1h52c0.5-3.1,0.7-6.3,0.7-9.6      C132.8,305.5,104.2,276.9,68.9,276.9z"/></g><g><path class="st8" d="M148.2,291.1c-25.5,0-46.2,20.7-46.2,46.2c0,4.6,0.7,9,1.9,13.2h88.5c1.2-4.2,1.9-8.6,1.9-13.2      C194.4,311.7,173.7,291.1,148.2,291.1z"/></g><g><circle class="st8" cx="167.9" cy="260" r="12.4"/></g><g><path class="st2" d="M260.4,432.9c-0.6,0-1-0.4-1-1V200.5c0-8.8-7.2-16-16-16H50.9c-8.8,0-16,7.2-16,16v231.5c0,0.6-0.4,1-1,1      c-0.6,0-1-0.4-1-1V200.5c0-9.9,8.1-18,18-18h192.6c9.9,0,18,8.1,18,18v231.5C261.4,432.5,260.9,432.9,260.4,432.9z"/></g><g><path class="st2" d="M212.8,214.7H33.9c-0.6,0-1-0.4-1-1c0-0.6,0.4-1,1-1h178.8c0.6,0,1,0.4,1,1      C213.8,214.3,213.3,214.7,212.8,214.7z"/></g></g><g><g><path class="st1" d="M160.8,211H136c-7.8,0-14.2-6.4-14.2-14.2V172c0-7.8,6.4-14.2,14.2-14.2h24.8c7.8,0,14.2,6.4,14.2,14.2      v24.8C175,204.6,168.6,211,160.8,211z"/></g><g><g><polygon class="st3" points="144.4,196.2 132.4,184.1 137.4,179.1 144.4,186.1 158.9,171.6 164,176.6      "/></g></g></g><g><circle class="st0" cx="181.4" cy="150.7" r="2.5"/></g><g><path class="st0" d="M92.3,162.2c-2.7,0-4.9,2.2-4.9,4.9c0,2.7,2.2,4.9,4.9,4.9c2.7,0,4.9-2.2,4.9-4.9     C97.2,164.5,95,162.2,92.3,162.2z M92.3,170c-1.6,0-2.8-1.3-2.8-2.8c0-1.6,1.3-2.8,2.8-2.8c1.6,0,2.8,1.3,2.8,2.8     C95.1,168.7,93.8,170,92.3,170z"/></g><g><path class="st0" d="M117.6,144.7l-1.9-1l1-1.9c0.3-0.5,0.1-1.1-0.4-1.4c-0.5-0.3-1.1-0.1-1.4,0.4l-1,1.9l-1.9-1     c-0.5-0.3-1.1-0.1-1.4,0.4c-0.3,0.5-0.1,1.1,0.4,1.4l1.9,1l-1,1.9c-0.3,0.5-0.1,1.1,0.4,1.4c0.5,0.3,1.1,0.1,1.4-0.4l1-1.9l1.9,1     c0.5,0.3,1.1,0.1,1.4-0.4C118.3,145.5,118.1,144.9,117.6,144.7z"/></g><g><path class="st2" d="M499.6,434.7l-487.1,0c-0.6,0-1-0.4-1-1c0-0.6,0.4-1,1-1l487.1,0c0.6,0,1,0.4,1,1     C500.6,434.2,500.1,434.7,499.6,434.7z"/></g><g><g><path class="st4" d="M50.4,372.8l86.6-55.3c15.6-10,33.8-15.3,52.3-15.3h120.2c18.5,0,36.7,5.3,52.3,15.3l86.6,55.3L296,399      h-93.7L50.4,372.8z"/></g><g><path class="st2" d="M296.1,400l-94,0L47.7,373.3l88.8-56.7c15.8-10.1,34.1-15.4,52.8-15.4h120.2c18.8,0,37,5.3,52.8,15.4      l88.8,56.7L296.1,400z M202.3,398h93.6l149.7-25.8l-84.4-53.9c-15.5-9.9-33.4-15.1-51.7-15.1H189.3c-18.4,0-36.3,5.2-51.7,15.1      l-84.4,53.9L202.3,398z"/></g><g><g><path class="st2" d="M382.1,434.2H113.3c-4.2,0-6.4-5.1-3.5-8.1l27.4-29h220.9l27.4,29C388.5,429.2,386.3,434.2,382.1,434.2z"/></g><g><path class="st1" d="M358.2,397.1H137.2l-27.4,29c-0.4,0.5-0.7,1-1,1.5c0.7,1.7,2.3,3,4.5,3h268.8c2.2,0,3.8-1.3,4.5-3       c-0.2-0.5-0.5-1-1-1.5L358.2,397.1z"/></g><g><polygon class="st9" points="378.6,426.6 116.6,426.6 123.5,419.7 372.2,419.7      "/></g><g><polygon class="st9" points="370.2,415.9 125.4,415.9 132.3,409 363.8,409      "/></g><g><polygon class="st9" points="361.6,405.3 134.1,405.3 141,398.4 355.2,398.4      "/></g></g><g><path class="st3" d="M58.7,370.4l116.8-15.2c3.3-0.4,6.7-0.5,10-0.2l21.8,1.8c10,0.8,19.1,6.1,24.6,14.5      c5.7,8.5,10.1,20.8,5.4,36.2c-0.5,1.7-2.2,2.6-3.9,2.1c-3.8-1.1-9.6-5-8.3-18.2l-21.6,0.8L67.4,424.3      c-19,4.5-36.4-12.2-32.7-31.4l0,0C37,381,46.7,371.9,58.7,370.4z"/></g><g><path class="st2" d="M61.1,426c-7.1,0-14-2.7-19.3-7.8c-6.9-6.6-9.9-16.1-8.1-25.5c2.4-12.3,12.4-21.7,24.8-23.3l116.8-15.2      c3.4-0.4,6.8-0.5,10.2-0.2l21.8,1.8c10.4,0.9,19.6,6.3,25.4,14.9c7.6,11.3,9.4,24.2,5.5,37.1c-0.7,2.2-3,3.4-5.1,2.8      c-3.9-1.2-10.1-5.1-9.1-18.2l-20.4,0.8l-136,32C65.5,425.8,63.3,426,61.1,426z M181.6,355.8c-2,0-4,0.1-6,0.4L58.8,371.4      c-11.6,1.5-20.9,10.2-23.1,21.7c-1.7,8.7,1.1,17.5,7.5,23.7c6.4,6.1,15.3,8.6,23.9,6.5l136.2-32.1l0.1,0l22.8-0.8l-0.1,1.1      c-1.2,12.6,4.3,16.2,7.6,17.2c1.1,0.3,2.3-0.3,2.6-1.4c3.8-12.5,2.1-24.4-5.2-35.4c-5.4-8.1-14.1-13.2-23.9-14l-21.8-1.8      C184.2,355.9,182.9,355.8,181.6,355.8z M58.7,370.4L58.7,370.4L58.7,370.4z"/></g><g><path class="st3" d="M176.3,378.9c0,0-9.3,30.4-3.1,38c6.2,7.6,11-3,12.8-11.6c1.8-8.6,1.9-26.4,1.9-26.4      S182.5,367.7,176.3,378.9z"/></g><g><path class="st3" d="M191.4,375.9c0,0-9.3,30.4-3.1,38c6.2,7.6,11-3,12.8-11.6c1.8-8.6,1.9-26.4,1.9-26.4      S197.6,364.8,191.4,375.9z"/></g><g><path class="st3" d="M166.9,378.9c0,0-16.8,20.3-10.4,37.4c6.4,17,16.2-15.6,16.2-15.6l2.6-17.7      C175.4,382.9,173.3,369.1,166.9,378.9z"/></g><g><path class="st3" d="M145.9,391.4c0,0-9.4,16-4,24.8c5.4,8.8,19-24.8,19-24.8s-5.7-18.3-10.3-9.1      C145.9,391.4,145.9,391.4,145.9,391.4z"/></g><g><path class="st3" d="M439.6,370.4l-116.8-15.2c-3.3-0.4-6.7-0.5-10-0.2l-21.8,1.8c-10,0.8-19.1,6.1-24.6,14.5      c-5.7,8.5-10.1,20.8-5.4,36.2c0.5,1.7,2.2,2.6,3.9,2.1c3.8-1.1,9.6-5,8.3-18.2l21.6,0.8l136.1,32.1c19,4.5,36.4-12.2,32.7-31.4      v0C461.3,381,451.6,371.9,439.6,370.4z"/></g><g><path class="st2" d="M437.1,426c-2.1,0-4.3-0.2-6.5-0.8l-136-32l-20.4-0.8c0.9,13.1-5.3,17-9.1,18.2c-2.2,0.7-4.5-0.6-5.1-2.8      c-4-12.9-2.1-25.8,5.5-37.1c5.7-8.6,15-14.1,25.4-14.9l21.8-1.8c3.4-0.3,6.9-0.2,10.2,0.2l116.8,15.2      c12.5,1.6,22.4,11,24.8,23.3c1.8,9.4-1.2,18.9-8.1,25.5C451.2,423.3,444.2,426,437.1,426z M272.1,390.4l23,0.9l136.1,32.1      c8.6,2,17.6-0.4,23.9-6.5c6.4-6.1,9.2-15,7.5-23.7c-2.2-11.5-11.5-20.2-23.1-21.7l-116.8-15.2c-3.3-0.4-6.6-0.5-9.8-0.2      l-21.8,1.8c-9.8,0.8-18.5,5.9-23.9,14c-7.3,11-9.1,22.9-5.2,35.4c0.3,1.1,1.5,1.8,2.7,1.4c3.4-1,8.9-4.6,7.6-17.2L272.1,390.4z"/></g><g><path class="st3" d="M321.9,378.9c0,0,9.3,30.4,3.1,38c-6.2,7.6-11-3-12.8-11.6c-1.8-8.6-1.9-26.4-1.9-26.4      S315.7,367.7,321.9,378.9z"/></g><g><path class="st3" d="M306.8,375.9c0,0,9.3,30.4,3.1,38c-6.2,7.6-11-3-12.8-11.6c-1.8-8.6-1.9-26.4-1.9-26.4      S300.6,364.8,306.8,375.9z"/></g><g><path class="st2" d="M305.7,417.6c-0.4,0-0.7,0-1.1-0.1c-4.2-1-7.2-8.4-8.5-14.9c-0.5-2.4-0.9-5.8-1.3-10c0-0.6,0.4-1,0.9-1.1      c0.6-0.1,1,0.4,1.1,0.9c0.3,4.1,0.7,7.4,1.2,9.8c1.3,6.1,4,12.6,7.1,13.4c1.2,0.3,2.6-0.4,4-2.2c2.7-3.3,2.5-12.6-0.5-26.3      c-1.4-6.1-6.4-10.8-12.6-11.6l-4.2-0.6c-0.5-0.1-0.9-0.6-0.9-1.1c0.1-0.5,0.6-0.9,1.1-0.9l4.2,0.6c7,1,12.8,6.2,14.3,13.1      c3.3,14.6,3.3,24,0.1,28C309.1,416.6,307.4,417.6,305.7,417.6z"/></g><g><path class="st3" d="M331.3,378.9c0,0,16.8,20.3,10.4,37.4c-6.4,17-16.2-15.6-16.2-15.6l-2.6-17.7      C322.9,382.9,325,369.1,331.3,378.9z"/></g><g><path class="st3" d="M352.4,391.4c0,0,9.4,16,4,24.8c-5.4,8.8-19-24.8-19-24.8s5.7-18.3,10.3-9.1      C352.4,391.4,352.4,391.4,352.4,391.4z"/></g><g id="XMLID_39_"><path class="st3" d="M273.2,308.3l-4.1-44.3h-37.4l-7,43.7c-0.3,1.9,0.1,3.8,1.1,5.3l0,0.1c10.8,16.7,35.3,16.8,46.2,0.1h0      C273,311.8,273.4,310,273.2,308.3z"/></g><g id="XMLID_41_"><path class="st2" d="M249,326.7C249,326.7,248.9,326.7,249,326.7c-9.8,0-18.7-4.9-24-13.1c-1.2-1.9-1.6-4-1.3-6.1l7.2-44.5H270      l4.2,45.2c0.2,1.9-0.3,3.9-1.4,5.5C267.6,321.8,258.7,326.7,249,326.7z M232.6,265l-6.9,42.8c-0.3,1.6,0.1,3.3,1,4.6      c4.9,7.6,13.2,12.2,22.3,12.2c0,0,0,0,0.1,0c9,0,17.3-4.5,22.2-12c0.8-1.2,1.2-2.7,1-4.2l-4-43.4H232.6z"/></g><g><path class="st10" d="M269.1,300.8l-3.4-36.8h-31l-4,25c0.3,0.6,0.7,1.2,1,1.7c5.3,8.2,14.6,13.2,24.4,13.2      C260.6,304,265.1,302.9,269.1,300.8z"/></g><g><path class="st3" d="M250,298c-9.8,0-19-5-24.4-13.2c-7.5-11.5-3-25.1-5.7-37.6c-0.9-4.3-1.7-9-1-13.3c0.6-3.4,2.3-6.7,5.3-8.3      c2.3-1.3,5.1-1.4,7.7-1.4c2.6,0,5.2,0.1,7.8,0.3c2.5,0.2,5.1,0.2,7.6,0.2c4.1,0,8.3,0,12.4,0c3.7,0,7.4,0,11.1,0      c1.5,0,3,0,4.5,0c3.5,0,5.8,0.5,6.1,4.5c0.3,3.1-0.5,6.7-1.3,9.6c-1.7,5.8-2.8,11.8-2.7,17.9c0.1,8.4,2.7,15.6-0.7,23.7      C272.3,290.9,261.5,298,250,298z"/></g><g><path class="st4" d="M289.4,222.5c-1-1.8-2.3-3.4-3.7-4.8c-5.6-5.3-13.4-7.7-21.1-9.1c-9.7-1.7-22.3-3.6-31.6,1.2      c-5.6,2.9-9.9,8.9-8.9,15.1c-2.1-2.2-4.7-4-7.6-4.7c-2.9-0.7-6.3,0-8.4,2.2c-3.6,3.8-2,10,0.1,14.8c1.7,4,3.9,8.1,6.3,11.8      c2.7,4.2,3.2,8.6,4.3,13.5c0.2,0.9,2,9,4.3,5.3c0.4-0.7-0.3-7.3-0.2-10.3c0.2-5,1.6-9.8,1.8-14.9c0-0.2,0-0.3,0-0.5      c1.5,2.7,5,3.6,8,4.2c13.9,2.6,28.3,3,42.3,1.4c0.3,0,2.5,7.8,2.6,8.8c0.4,3.4-1.9,8.2-0.3,11.4c3.4,7,5.3-9.4,6.1-11.4      c2.2-5.5,3.7-11.5,6.5-16.9C292.7,234,292.6,228.1,289.4,222.5z"/></g><g><path class="st4" d="M226,278.7c-3.4-5.6-2.3-18-3-24.9c0-0.5-2.1,2.4-2.5,2.1c-0.6-0.4-1.5,0-1.8,0.7c-0.3,0.7-0.2,1.4-0.1,2.1      c0.6,4.8,1.2,9.7,1.8,14.5c1,8.6,2.9,17.5,8.1,24.7c3.7,5,9.2,8.5,15.2,9.9c9.7,2.2,21.3-1.5,27.6-9.2      c4.7-5.7,6.8-12.8,8.7-19.9c1.1-4.3,1.1-9.7,0.8-14.1c-0.1-1.8-0.5-8.4-2.2-6.4c-0.7,0.8-1.6,5.4-1.6,6.3      c-0.1,2.4,0.3,6-0.6,8.3c-1.3,3.3-5.9,10.3-10.2,10.1c-1.6-0.1-2.9-1-4-2c-2-1.8-5.1-0.4-7.5,0c-2,0.4-4,0.6-6,0.3      c-3.6-0.6-7-1.8-10.4,0c-1.9,1-3.7,2.2-5.8,2.2c-2.5,0-4.6-2-6-4.1C226.1,278.9,226,278.8,226,278.7z"/></g><g><path class="st3" d="M240.7,288.6h19.1c0,0-2.8,6.7-10.2,6.2C242,294.4,240.7,288.6,240.7,288.6z"/></g><g><path class="st2" d="M273.3,398.1c0,0-0.1,0-0.1,0c-0.5-0.1-0.9-0.6-0.9-1.1c0.9-7.3-3.1-9.8-3.3-9.9c-0.5-0.3-0.6-0.9-0.4-1.4      c0.3-0.5,0.9-0.6,1.4-0.4c0.2,0.1,5.4,3.2,4.3,11.9C274.2,397.7,273.8,398.1,273.3,398.1z"/></g><g><path class="st2" d="M320.9,420.5c-0.4,0-0.7,0-1.1-0.1c-4.2-1-7.2-8.4-8.5-14.9c-1.1-5.5-1.6-16.1-1.8-24c0-2,0.7-3.9,2.1-5.4      c1.4-1.5,3.3-2.2,5.3-2.2c3.5,0,6.5,2.4,7.3,5.7c2.7,11.6,6.6,31.9,1.7,37.9C324.2,419.5,322.5,420.5,320.9,420.5z M316.9,375.9      c-1.5,0-2.9,0.6-3.9,1.6c-1,1.1-1.6,2.5-1.5,3.9c0.2,6.4,0.6,18,1.8,23.6c1.3,6.1,4,12.6,7.1,13.4c1.2,0.3,2.6-0.4,4-2.2      c3.1-3.8,2.3-17.4-2.1-36.2C321.6,377.6,319.4,375.9,316.9,375.9z"/></g><g><path class="st2" d="M337.5,421.5c-0.2,0-0.5,0-0.7-0.1c-4.3-0.7-7.8-7.7-9.7-14.1c-1.6-5.4-3-15.9-3.8-23.8      c-0.2-2,0.4-4,1.7-5.5c1.3-1.6,3.1-2.5,5.1-2.7l0,0c3.5-0.3,6.6,1.8,7.7,5.1c3.7,11.3,9.2,31.3,4.8,37.6      C341,420.4,339.3,421.5,337.5,421.5z M330.2,377.3c-1.5,0.1-2.8,0.8-3.8,2c-0.9,1.1-1.4,2.6-1.2,4.1c0.7,6.4,2.1,17.9,3.7,23.4      c1.8,6,5,12.2,8.1,12.7c1.3,0.2,2.5-0.6,3.8-2.5c2.8-4.1,0.9-17.5-5.1-35.9C335.1,378.6,332.7,377.1,330.2,377.3L330.2,377.3z"/></g><g><path class="st2" d="M354.1,418.6c-0.1,0-0.1,0-0.2,0c-3.9-0.2-7.9-6.1-10.3-11.6c-2-4.6-4.3-13.9-5.9-20.8      c-0.4-1.8-0.1-3.6,0.9-5.2c1-1.6,2.5-2.6,4.4-3l0,0c3.1-0.6,6.2,0.9,7.5,3.8c4.5,9.7,11.5,27,8.3,33.2      C357.5,417.4,355.9,418.6,354.1,418.6z M343.4,380L343.4,380c-1.3,0.3-2.4,1-3.1,2.1c-0.7,1.1-0.9,2.4-0.6,3.7      c1.3,5.6,3.7,15.7,5.8,20.5c2.6,6,6.1,10.3,8.5,10.4c1.1,0.1,2.1-0.8,3-2.6c2-3.9-1.1-15.6-8.3-31.4      C347.8,380.6,345.6,379.5,343.4,380z"/></g><g><path class="st2" d="M192.4,417.6c-1.7,0-3.4-1-5-3c-3.2-3.9-3.2-13.3,0.1-28c1.5-6.9,7.3-12.2,14.3-13.1l4.2-0.6      c0.5-0.1,1.1,0.3,1.1,0.9c0.1,0.5-0.3,1.1-0.9,1.1l-4.2,0.6c-6.2,0.8-11.3,5.5-12.6,11.6c-3,13.6-3.2,22.9-0.5,26.3      c1.4,1.7,2.8,2.5,4,2.2c3.1-0.8,5.8-7.3,7.1-13.4c0.5-2.3,0.9-5.6,1.2-9.8c0-0.6,0.5-1,1.1-0.9c0.5,0,1,0.5,0.9,1.1      c-0.3,4.2-0.7,7.6-1.3,10c-1.4,6.5-4.3,13.9-8.5,14.9C193.1,417.5,192.7,417.6,192.4,417.6z"/></g><g><path class="st2" d="M224.8,398.1c-0.5,0-0.9-0.4-1-0.9c-1.1-8.7,4.1-11.8,4.3-11.9c0.5-0.3,1.1-0.1,1.4,0.4      c0.3,0.5,0.1,1.1-0.4,1.4c-0.2,0.1-4.2,2.6-3.3,9.9c0.1,0.5-0.3,1-0.9,1.1C224.9,398.1,224.9,398.1,224.8,398.1z"/></g><g><path class="st2" d="M177.3,420.5c-1.7,0-3.4-1-5-3c-4.9-6-1-26.3,1.7-37.9c0.8-3.4,3.8-5.7,7.3-5.7c2,0,3.9,0.8,5.3,2.2      c1.4,1.4,2.2,3.4,2.1,5.4c-0.2,7.9-0.7,18.5-1.8,24c-1.4,6.5-4.3,13.9-8.5,14.9C178,420.5,177.6,420.5,177.3,420.5z       M181.2,375.9c-2.5,0-4.7,1.7-5.3,4.2c-4.4,18.8-5.2,32.4-2.1,36.2c1.4,1.7,2.8,2.5,4,2.2c3.1-0.8,5.8-7.3,7.1-13.4      c1.2-5.6,1.6-17.2,1.8-23.6c0-1.5-0.5-2.9-1.5-3.9C184.1,376.4,182.7,375.9,181.2,375.9z"/></g><g><path class="st2" d="M160.6,421.5c-1.8,0-3.5-1.1-5.1-3.4c-4.4-6.4,1.1-26.3,4.8-37.6c1.1-3.3,4.2-5.4,7.7-5.1l0,0      c2,0.2,3.8,1.1,5.1,2.7c1.3,1.6,1.9,3.5,1.7,5.5c-0.9,7.9-2.2,18.4-3.8,23.8c-1.9,6.4-5.5,13.5-9.7,14.1      C161.1,421.5,160.8,421.5,160.6,421.5z M167.4,377.3c-2.4,0-4.4,1.5-5.2,3.8c-6,18.4-7.9,31.8-5.1,35.9c1.3,1.9,2.5,2.7,3.8,2.5      c3.2-0.5,6.4-6.7,8.1-12.7c1.6-5.5,3-17,3.7-23.4c0.2-1.5-0.3-2.9-1.2-4.1c-0.9-1.1-2.3-1.8-3.8-2      C167.7,377.3,167.6,377.3,167.4,377.3z"/></g><g><path class="st2" d="M144.1,418.6c-1.9,0-3.5-1.2-4.7-3.6c-3.2-6.2,3.8-23.4,8.3-33.2c1.3-2.9,4.4-4.5,7.5-3.8l0,0      c1.8,0.4,3.4,1.4,4.4,3c1,1.6,1.3,3.4,0.9,5.2c-1.6,6.9-3.9,16.2-5.9,20.8c-2.4,5.5-6.3,11.5-10.3,11.6      C144.2,418.6,144.1,418.6,144.1,418.6z M153.7,379.9c-1.8,0-3.5,1.1-4.3,2.8c-7.3,15.8-10.4,27.5-8.3,31.4      c0.9,1.7,1.9,2.6,3,2.6c0,0,0.1,0,0.1,0c2.4-0.1,5.9-4.4,8.5-10.4c2-4.7,4.5-14.9,5.8-20.5c0.3-1.3,0.1-2.6-0.6-3.7      c-0.7-1.1-1.8-1.8-3.1-2.1C154.4,379.9,154.1,379.9,153.7,379.9z"/></g><g><path class="st2" d="M264.6,263c-0.2,0-0.5-0.1-0.7-0.2l0,0c-0.1-0.1-2.2-1.8-5-0.9c-0.5,0.2-1.1-0.1-1.3-0.6      c-0.2-0.5,0.1-1.1,0.6-1.3c4-1.4,6.9,1.1,7,1.2c0.4,0.4,0.5,1,0.1,1.4C265.2,262.9,264.9,263,264.6,263z"/></g><g><path class="st2" d="M238.6,263c-0.3,0-0.6-0.1-0.8-0.3c-0.4-0.4-0.3-1,0.1-1.4c0.1-0.1,3-2.6,7-1.2c0.5,0.2,0.8,0.8,0.6,1.3      c-0.2,0.5-0.8,0.8-1.3,0.6c-2.8-1-4.9,0.8-5,0.9C239.1,262.9,238.8,263,238.6,263z"/></g><g><path class="st2" d="M259.8,265.3c-0.1,0.8,0.3,1.6,1,1.7c0.7,0.1,1.4-0.4,1.5-1.2c0.1-0.8-0.3-1.6-1-1.7      C260.6,263.9,259.9,264.5,259.8,265.3z"/></g><g><path class="st2" d="M240.8,265.3c-0.1,0.8,0.3,1.6,1,1.7c0.7,0.1,1.4-0.4,1.5-1.2c0.1-0.8-0.3-1.6-1-1.7      C241.6,263.9,240.9,264.5,240.8,265.3z"/></g><g><path class="st2" d="M250.3,278.6c-0.1,0-0.3,0-0.4-0.1c-0.5-0.2-0.7-0.8-0.5-1.3c2.8-6.4-1.2-14.9-1.2-15      c-0.2-0.5,0-1.1,0.5-1.3c0.5-0.2,1.1,0,1.3,0.5c0.2,0.4,4.5,9.4,1.3,16.7C251,278.4,250.7,278.6,250.3,278.6z"/></g></g><g><circle class="st4" cx="390.9" cy="327.5" r="1.8"/></g><g><path class="st4" d="M420.9,319.1c0,1.6-1.3,3-3,3c-1.6,0-3-1.3-3-3c0-1.6,1.3-3,3-3C419.6,316.1,420.9,317.4,420.9,319.1z"/></g><g><path class="st4" d="M432.3,342.7c0,2.3-1.9,4.2-4.2,4.2s-4.2-1.9-4.2-4.2c0-2.3,1.9-4.2,4.2-4.2S432.3,340.4,432.3,342.7z"/></g><g><path class="st4" d="M475.6,335.4c0-0.7-0.6-1.3-1.3-1.3l-2.8,0c-0.5,0-0.9-0.3-1-0.7c-0.1-0.3-0.2-0.5-0.3-0.8     c-0.2-0.4-0.1-0.9,0.2-1.2l2-2c0.5-0.5,0.5-1.3,0-1.8l-3.2-3.2c-0.5-0.5-1.3-0.5-1.8,0l-2,2c-0.3,0.3-0.8,0.4-1.2,0.2     c-0.3-0.1-0.6-0.2-0.8-0.3c-0.4-0.2-0.7-0.6-0.7-1v-2.8c0-0.7-0.6-1.3-1.3-1.3h-4.5c-0.7,0-1.3,0.6-1.3,1.3v2.8     c0,0.5-0.3,0.9-0.7,1c-0.3,0.1-0.5,0.2-0.8,0.3c-0.4,0.2-0.9,0.1-1.2-0.2l-2-2c-0.5-0.5-1.3-0.5-1.8,0l-3.2,3.2     c-0.5,0.5-0.5,1.3,0,1.8l2,2c0.3,0.3,0.4,0.8,0.2,1.2c-0.1,0.3-0.2,0.6-0.3,0.8c-0.2,0.4-0.6,0.7-1,0.7l-2.8,0     c-0.7,0-1.3,0.6-1.3,1.3l0,4.5c0,0.7,0.6,1.3,1.3,1.3l2.8,0c0.5,0,0.9,0.3,1,0.7c0.1,0.3,0.2,0.5,0.3,0.8     c0.2,0.4,0.1,0.9-0.2,1.2l-2,2c-0.5,0.5-0.5,1.3,0,1.8l3.2,3.2c0.5,0.5,1.3,0.5,1.8,0l2-2c0.3-0.3,0.8-0.4,1.2-0.2     c0.3,0.1,0.6,0.2,0.8,0.3c0.4,0.2,0.7,0.6,0.7,1l0,2.8c0,0.7,0.6,1.3,1.3,1.3l4.5,0c0.7,0,1.3-0.6,1.3-1.3l0-2.8     c0-0.5,0.3-0.9,0.7-1c0.3-0.1,0.5-0.2,0.8-0.3c0.4-0.2,0.9-0.1,1.2,0.2l2,2c0.5,0.5,1.3,0.5,1.8,0l3.2-3.2c0.5-0.5,0.5-1.3,0-1.8     l-2-2c-0.3-0.3-0.4-0.8-0.2-1.2c0.3-0.7,0.6-1.5,0.6-1.5l3.5,0c0.7,0,1.3-0.6,1.3-1.3L475.6,335.4z M456.7,343.7     c-0.4-0.1-0.7-0.3-1-0.5c-0.6-0.4-1.2-0.9-1.6-1.5c-0.2-0.3-0.4-0.6-0.6-0.9c-0.2-0.3-0.3-0.7-0.5-1c-0.1-0.3-0.2-0.7-0.3-1.1     c-0.1-0.7-0.1-1.5,0-2.2c0.8-4,4.9-6.3,8.6-4.8c0.7,0.3,1.3,0.7,1.9,1.2c0.1,0.1,0.3,0.2,0.4,0.4c0.8,0.8,1.3,1.8,1.6,2.8     c0.2,0.9,0.3,1.8,0.1,2.8C464.6,342.9,460.5,345.1,456.7,343.7z"/></g><g><g id="XMLID_104_"><path class="st3" d="M449.4,432.7h13.9c6.6,0,11.9-5.3,11.9-11.9v-28.5h-37.7v28.5C437.5,427.4,442.9,432.7,449.4,432.7z"/></g><g id="XMLID_86_"><path class="st2" d="M463.1,433.7h-13.4c-7.2,0-13.1-5.9-13.1-13.1v-29.2h39.7v29.2C476.2,427.8,470.3,433.7,463.1,433.7z       M438.5,393.3v27.2c0,6.1,5,11.1,11.1,11.1h13.4c6.1,0,11.1-5,11.1-11.1v-27.2H438.5z"/></g><g><path class="st2" d="M437.5,413.5h-4c-3.6,0-6.4-2.9-6.4-6.4v-1c0-3.6,2.9-6.4,6.4-6.4h4c0.6,0,1,0.4,1,1c0,0.6-0.4,1-1,1h-4      c-2.4,0-4.4,2-4.4,4.4v1c0,2.4,2,4.4,4.4,4.4h4c0.6,0,1,0.4,1,1C438.5,413,438.1,413.5,437.5,413.5z"/></g><g><path class="st2" d="M470.1,417.3c-0.6,0-1-0.4-1-1v-18.1c0-0.6,0.4-1,1-1c0.6,0,1,0.4,1,1v18.1      C471.1,416.9,470.7,417.3,470.1,417.3z"/></g></g></g></g></svg>